<svg width="847" height="847" xmlns="http://www.w3.org/2000/svg" version="1.1"><g transform="translate(423.5,423.5)"><g display="none"><path d="M0,299.45972183250285A299.45972183250285,299.45972183250285 0 1,1 0,-299.45972183250285A299.45972183250285,299.45972183250285 0 1,1 0,299.45972183250285Z" style="stroke: rgb(255, 255, 255); fill: rgb(188, 33, 242); fill-rule: evenodd;"></path><text transform="rotate(90)" x="0" dx="6" dy=".35em" style="font-size: 11px; font-family: Arial, Helvetica;"></text><title>undefined: none</title></g><g><path d="M2.5931895971945205e-14,-423.5A423.5,423.5 0 0,1 402.7724346509975,-130.86869711779022L284.8031198167359,-92.53814317703784A299.45972183250285,299.45972183250285 0 0,0 1.833661949078657e-14,-299.45972183250285Z" style="stroke: rgb(255, 255, 255); fill: rgb(188, 33, 242); fill-rule: evenodd;"></path><text transform="rotate(-54)" x="299.45972183250285" dx="6" dy=".35em" style="font-size: 11px; font-family: Arial, Helvetica;">Claudia Astorino</text><title>Claudia Astorino: 1</title></g><g><path d="M402.7724346509975,-130.86869711779022A423.5,423.5 0 0,1 248.9270543458624,342.61869711779025L176.0180081487515,242.26800409328928A299.45972183250285,299.45972183250285 0 0,0 284.8031198167359,-92.53814317703784Z" style="stroke: rgb(255, 255, 255); fill: rgb(188, 33, 242); fill-rule: evenodd;"></path><text transform="rotate(18)" x="299.45972183250285" dx="6" dy=".35em" style="font-size: 11px; font-family: Arial, Helvetica;">Emi Koyama</text><title>Emi Koyama: 1</title></g><g><path d="M248.9270543458624,342.61869711779025A423.5,423.5 0 0,1 -248.92705434586233,342.61869711779025L-176.01800814875148,242.26800409328928A299.45972183250285,299.45972183250285 0 0,0 176.0180081487515,242.26800409328928Z" style="stroke: rgb(255, 255, 255); fill: rgb(255, 234, 42); fill-rule: evenodd;"></path><text transform="rotate(90)" x="299.45972183250285" dx="6" dy=".35em" style="font-size: 11px; font-family: Arial, Helvetica;">Genres Pluriels</text><title>Genres Pluriels: 1</title></g><g><path d="M-248.92705434586233,342.61869711779025A423.5,423.5 0 0,1 -402.7724346509976,-130.86869711779016L-284.80311981673594,-92.53814317703781A299.45972183250285,299.45972183250285 0 0,0 -176.01800814875148,242.26800409328928Z" style="stroke: rgb(255, 255, 255); fill: rgb(255, 234, 42); fill-rule: evenodd;"></path><text transform="rotate(162)" x="299.45972183250285" dx="6" dy=".35em" style="font-size: 11px; font-family: Arial, Helvetica;">OII</text><title>OII: 1</title></g><g><path d="M-402.7724346509976,-130.86869711779016A423.5,423.5 0 0,1 -7.779568791583561e-14,-423.5L-5.50098584723597e-14,-299.45972183250285A299.45972183250285,299.45972183250285 0 0,0 -284.80311981673594,-92.53814317703781Z" style="stroke: rgb(255, 255, 255); fill: rgb(122, 122, 242); fill-rule: evenodd;"></path><text transform="rotate(234)" x="299.45972183250285" dx="6" dy=".35em" style="font-size: 11px; font-family: Arial, Helvetica;">Tracie O’Keefe</text><title>Tracie O’Keefe: 1</title></g></g></svg>