<svg width="847" height="847" xmlns="http://www.w3.org/2000/svg" version="1.1"><g transform="translate(423.5,423.5)"><g display="none"><path d="M0,299.45972183250285A299.45972183250285,299.45972183250285 0 1,1 0,-299.45972183250285A299.45972183250285,299.45972183250285 0 1,1 0,299.45972183250285Z" style="stroke: rgb(255, 255, 255); fill: rgb(255, 106, 106); fill-rule: evenodd;"></path><text transform="rotate(90)" x="0" dx="6" dy=".35em" style="font-size: 11px; font-family: Arial, Helvetica;"></text><title>undefined: none</title></g><g><path d="M2.5931895971945205e-14,-423.5A423.5,423.5 0 0,1 299.4597218325029,-299.45972183250285L211.75,-211.74999999999997A299.45972183250285,299.45972183250285 0 0,0 1.833661949078657e-14,-299.45972183250285Z" style="stroke: rgb(255, 255, 255); fill: rgb(255, 106, 106); fill-rule: evenodd;"></path><text transform="rotate(-67.5)" x="299.45972183250285" dx="6" dy=".35em" style="font-size: 11px; font-family: Arial, Helvetica;">André Wilcox</text><title>André Wilcox: 1</title></g><g><path d="M299.4597218325029,-299.45972183250285A423.5,423.5 0 0,1 423.5,0L299.45972183250285,0A299.45972183250285,299.45972183250285 0 0,0 211.75,-211.74999999999997Z" style="stroke: rgb(255, 255, 255); fill: rgb(255, 106, 106); fill-rule: evenodd;"></path><text transform="rotate(-22.5)" x="299.45972183250285" dx="6" dy=".35em" style="font-size: 11px; font-family: Arial, Helvetica;">Geneviève Pagé</text><title>Geneviève Pagé: 1</title></g><g><path d="M423.5,0A423.5,423.5 0 0,1 299.4597218325029,299.45972183250285L211.75,211.74999999999997A299.45972183250285,299.45972183250285 0 0,0 299.45972183250285,0Z" style="stroke: rgb(255, 255, 255); fill: rgb(255, 106, 106); fill-rule: evenodd;"></path><text transform="rotate(22.5)" x="299.45972183250285" dx="6" dy=".35em" style="font-size: 11px; font-family: Arial, Helvetica;">Isabelle Côté</text><title>Isabelle Côté: 1</title></g><g><path d="M299.4597218325029,299.45972183250285A423.5,423.5 0 0,1 2.5931895971945205e-14,423.5L1.833661949078657e-14,299.45972183250285A299.45972183250285,299.45972183250285 0 0,0 211.75,211.74999999999997Z" style="stroke: rgb(255, 255, 255); fill: rgb(208, 22, 255); fill-rule: evenodd;"></path><text transform="rotate(67.5)" x="299.45972183250285" dx="6" dy=".35em" style="font-size: 11px; font-family: Arial, Helvetica;">Janik Bastien Charlebois</text><title>Janik Bastien Charlebois: 1</title></g><g><path d="M2.5931895971945205e-14,423.5A423.5,423.5 0 0,1 -299.45972183250285,299.4597218325029L-211.74999999999997,211.75A299.45972183250285,299.45972183250285 0 0,0 1.833661949078657e-14,299.45972183250285Z" style="stroke: rgb(255, 255, 255); fill: rgb(255, 192, 98); fill-rule: evenodd;"></path><text transform="rotate(112.5)" x="299.45972183250285" dx="6" dy=".35em" style="font-size: 11px; font-family: Arial, Helvetica;">John Money</text><title>John Money: 1</title></g><g><path d="M-299.45972183250285,299.4597218325029A423.5,423.5 0 0,1 -423.5,5.186379194389041e-14L-299.45972183250285,3.667323898157314e-14A299.45972183250285,299.45972183250285 0 0,0 -211.74999999999997,211.75Z" style="stroke: rgb(255, 255, 255); fill: rgb(142, 153, 255); fill-rule: evenodd;"></path><text transform="rotate(157.49999999999997)" x="299.45972183250285" dx="6" dy=".35em" style="font-size: 11px; font-family: Arial, Helvetica;">Lawson Wilkins</text><title>Lawson Wilkins: 1</title></g><g><path d="M-423.5,5.186379194389041e-14A423.5,423.5 0 0,1 -299.45972183250296,-299.45972183250285L-211.75000000000003,-211.74999999999997A299.45972183250285,299.45972183250285 0 0,0 -299.45972183250285,3.667323898157314e-14Z" style="stroke: rgb(255, 255, 255); fill: rgb(142, 153, 255); fill-rule: evenodd;"></path><text transform="rotate(202.50000000000003)" x="299.45972183250285" dx="6" dy=".35em" style="font-size: 11px; font-family: Arial, Helvetica;">Louis Ombrédanne</text><title>Louis Ombrédanne: 1</title></g><g><path d="M-299.45972183250296,-299.45972183250285A423.5,423.5 0 0,1 -7.779568791583561e-14,-423.5L-5.50098584723597e-14,-299.45972183250285A299.45972183250285,299.45972183250285 0 0,0 -211.75000000000003,-211.74999999999997Z" style="stroke: rgb(255, 255, 255); fill: rgb(142, 153, 255); fill-rule: evenodd;"></path><text transform="rotate(247.49999999999997)" x="299.45972183250285" dx="6" dy=".35em" style="font-size: 11px; font-family: Arial, Helvetica;">Pierre Mouriquand</text><title>Pierre Mouriquand: 1</title></g></g></svg>