<svg width="847" height="847" xmlns="http://www.w3.org/2000/svg" version="1.1"><g transform="translate(423.5,423.5)"><g display="none"><path d="M0,244.5078390018065A244.5078390018065,244.5078390018065 0 1,1 0,-244.5078390018065A244.5078390018065,244.5078390018065 0 1,1 0,244.5078390018065Z" style="stroke: rgb(255, 255, 255); fill: rgb(245, 33, 33); fill-rule: evenodd;"></path><text transform="rotate(90)" x="0" dx="6" dy=".35em" style="font-size: 11px; font-family: Arial, Helvetica;"></text><title>undefined: none</title></g><g><path d="M2.117330439806673e-14,-345.78630202289196A345.78630202289196,345.78630202289196 0 0,1 343.26513055967473,-41.679932923603936L242.72510156363157,-29.472163209680787A244.5078390018065,244.5078390018065 0 0,0 1.4971787119999935e-14,-244.5078390018065Z" style="stroke: rgb(255, 255, 255); fill: rgb(245, 33, 33); fill-rule: evenodd;"></path><text transform="rotate(-48.46153846153847)" x="244.5078390018065" dx="6" dy=".35em" style="font-size: 11px; font-family: Arial, Helvetica;">Sociologue</text><title>Sociologue: none</title></g><g><path d="M2.5931895971945205e-14,-423.5A423.5,423.5 0 0,1 196.810263360536,-374.9906268641344L160.69490712536296,-306.1785647145104A345.78630202289196,345.78630202289196 0 0,0 2.117330439806673e-14,-345.78630202289196Z" style="stroke: rgb(255, 255, 255); fill: rgb(245, 33, 33); fill-rule: evenodd;"></path><text transform="rotate(-76.15384615384615)" x="345.78630202289196" dx="6" dy=".35em" style="font-size: 11px; font-family: Arial, Helvetica;">André Wilcox</text><title>André Wilcox: 1</title></g><g><path d="M196.810263360536,-374.9906268641344A423.5,423.5 0 0,1 348.53366720596347,-240.5754202406445L284.5765476118711,-196.42900808173707A345.78630202289196,345.78630202289196 0 0,0 160.69490712536296,-306.1785647145104Z" style="stroke: rgb(255, 255, 255); fill: rgb(245, 33, 33); fill-rule: evenodd;"></path><text transform="rotate(-48.46153846153847)" x="345.78630202289196" dx="6" dy=".35em" style="font-size: 11px; font-family: Arial, Helvetica;">Geneviève Pagé</text><title>Geneviève Pagé: 1</title></g><g><path d="M348.53366720596347,-240.5754202406445A423.5,423.5 0 0,1 420.41220818052585,-51.047284088129366L343.26513055967473,-41.679932923603936A345.78630202289196,345.78630202289196 0 0,0 284.5765476118711,-196.42900808173707Z" style="stroke: rgb(255, 255, 255); fill: rgb(245, 33, 33); fill-rule: evenodd;"></path><text transform="rotate(-20.769230769230777)" x="345.78630202289196" dx="6" dy=".35em" style="font-size: 11px; font-family: Arial, Helvetica;">Isabelle Côté</text><title>Isabelle Côté: 1</title></g><g><path d="M343.26513055967473,-41.679932923603936A345.78630202289196,345.78630202289196 0 0,1 82.75207857014657,335.73838052714046L58.514555914232616,237.40288557533052A244.5078390018065,244.5078390018065 0 0,0 242.72510156363157,-29.472163209680787Z" style="stroke: rgb(255, 255, 255); fill: rgb(200, 42, 240); fill-rule: evenodd;"></path><text transform="rotate(34.61538461538461)" x="244.5078390018065" dx="6" dy=".35em" style="font-size: 11px; font-family: Arial, Helvetica;">Intersexe</text><title>Intersexe: none</title></g><g><path d="M420.41220818052585,-51.047284088129366A423.5,423.5 0 0,1 395.97937877727315,150.17516966251378L323.3158088895285,122.61751256968367A345.78630202289196,345.78630202289196 0 0,0 343.26513055967473,-41.679932923603936Z" style="stroke: rgb(255, 255, 255); fill: rgb(200, 42, 240); fill-rule: evenodd;"></path><text transform="rotate(6.923076923076917)" x="345.78630202289196" dx="6" dy=".35em" style="font-size: 11px; font-family: Arial, Helvetica;">Claudia Astorino</text><title>Claudia Astorino: 1</title></g><g><path d="M395.97937877727315,150.17516966251378A423.5,423.5 0 0,1 280.83244576497685,316.9943018504612L229.29873178067464,258.82476363447313A345.78630202289196,345.78630202289196 0 0,0 323.3158088895285,122.61751256968367Z" style="stroke: rgb(255, 255, 255); fill: rgb(200, 42, 240); fill-rule: evenodd;"></path><text transform="rotate(34.61538461538461)" x="345.78630202289196" dx="6" dy=".35em" style="font-size: 11px; font-family: Arial, Helvetica;">Emi Koyama</text><title>Emi Koyama: 1</title></g><g><path d="M280.83244576497685,316.9943018504612A423.5,423.5 0 0,1 101.35018382578083,411.19385967993304L82.75207857014657,335.73838052714046A345.78630202289196,345.78630202289196 0 0,0 229.29873178067464,258.82476363447313Z" style="stroke: rgb(255, 255, 255); fill: rgb(200, 42, 240); fill-rule: evenodd;"></path><text transform="rotate(62.30769230769228)" x="345.78630202289196" dx="6" dy=".35em" style="font-size: 11px; font-family: Arial, Helvetica;">Janik Bastien Charlebois</text><title>Janik Bastien Charlebois: 1</title></g><g><path d="M82.75207857014657,335.73838052714046A345.78630202289196,345.78630202289196 0 0,1 -229.2987317806745,258.82476363447324L-162.13868815959026,183.01674550494135A244.5078390018065,244.5078390018065 0 0,0 58.514555914232616,237.40288557533052Z" style="stroke: rgb(255, 255, 255); fill: rgb(255, 247, 60); fill-rule: evenodd;"></path><text transform="rotate(103.84615384615384)" x="244.5078390018065" dx="6" dy=".35em" style="font-size: 11px; font-family: Arial, Helvetica;">Association Intersexe</text><title>Association Intersexe: none</title></g><g><path d="M101.35018382578083,411.19385967993304A423.5,423.5 0 0,1 -101.35018382578059,411.1938596799331L-82.75207857014637,335.73838052714046A345.78630202289196,345.78630202289196 0 0,0 82.75207857014657,335.73838052714046Z" style="stroke: rgb(255, 255, 255); fill: rgb(255, 247, 60); fill-rule: evenodd;"></path><text transform="rotate(89.99999999999997)" x="345.78630202289196" dx="6" dy=".35em" style="font-size: 11px; font-family: Arial, Helvetica;">Genres Pluriels</text><title>Genres Pluriels: 1</title></g><g><path d="M-101.35018382578059,411.1938596799331A423.5,423.5 0 0,1 -280.8324457649767,316.9943018504614L-229.2987317806745,258.82476363447324A345.78630202289196,345.78630202289196 0 0,0 -82.75207857014637,335.73838052714046Z" style="stroke: rgb(255, 255, 255); fill: rgb(255, 247, 60); fill-rule: evenodd;"></path><text transform="rotate(117.69230769230768)" x="345.78630202289196" dx="6" dy=".35em" style="font-size: 11px; font-family: Arial, Helvetica;">OII</text><title>OII: 1</title></g><g><path d="M-229.2987317806745,258.82476363447324A345.78630202289196,345.78630202289196 0 0,1 -323.31580888952845,122.61751256968378L-228.6188009305994,86.70367463025013A244.5078390018065,244.5078390018065 0 0,0 -162.13868815959026,183.01674550494135Z" style="stroke: rgb(255, 255, 255); fill: rgb(242, 145, 30); fill-rule: evenodd;"></path><text transform="rotate(145.3846153846154)" x="244.5078390018065" dx="6" dy=".35em" style="font-size: 11px; font-family: Arial, Helvetica;">Psychologue</text><title>Psychologue: none</title></g><g><path d="M-280.8324457649767,316.9943018504614A423.5,423.5 0 0,1 -395.97937877727315,150.17516966251392L-323.31580888952845,122.61751256968378A345.78630202289196,345.78630202289196 0 0,0 -229.2987317806745,258.82476363447324Z" style="stroke: rgb(255, 255, 255); fill: rgb(242, 145, 30); fill-rule: evenodd;"></path><text transform="rotate(145.3846153846154)" x="345.78630202289196" dx="6" dy=".35em" style="font-size: 11px; font-family: Arial, Helvetica;">John Money</text><title>John Money: 1</title></g><g><path d="M-323.31580888952845,122.61751256968378A345.78630202289196,345.78630202289196 0 0,1 -160.69490712536313,-306.1785647145103L-113.62845853048672,-216.50093936359443A244.5078390018065,244.5078390018065 0 0,0 -228.6188009305994,86.70367463025013Z" style="stroke: rgb(255, 255, 255); fill: rgb(85, 184, 255); fill-rule: evenodd;"></path><text transform="rotate(200.76923076923077)" x="244.5078390018065" dx="6" dy=".35em" style="font-size: 11px; font-family: Arial, Helvetica;">Chirurgien</text><title>Chirurgien: none</title></g><g><path d="M-395.97937877727315,150.17516966251392A423.5,423.5 0 0,1 -420.4122081805259,-51.047284088129025L-343.26513055967473,-41.679932923603666A345.78630202289196,345.78630202289196 0 0,0 -323.31580888952845,122.61751256968378Z" style="stroke: rgb(255, 255, 255); fill: rgb(85, 184, 255); fill-rule: evenodd;"></path><text transform="rotate(173.07692307692307)" x="345.78630202289196" dx="6" dy=".35em" style="font-size: 11px; font-family: Arial, Helvetica;">Lawson Wilkins</text><title>Lawson Wilkins: 1</title></g><g><path d="M-420.4122081805259,-51.047284088129025A423.5,423.5 0 0,1 -348.53366720596375,-240.57542024064412L-284.5765476118713,-196.42900808173675A345.78630202289196,345.78630202289196 0 0,0 -343.26513055967473,-41.679932923603666Z" style="stroke: rgb(255, 255, 255); fill: rgb(85, 184, 255); fill-rule: evenodd;"></path><text transform="rotate(200.76923076923075)" x="345.78630202289196" dx="6" dy=".35em" style="font-size: 11px; font-family: Arial, Helvetica;">Louis Ombrédanne</text><title>Louis Ombrédanne: 1</title></g><g><path d="M-348.53366720596375,-240.57542024064412A423.5,423.5 0 0,1 -196.81026336053654,-374.9906268641341L-160.6949071253634,-306.1785647145101A345.78630202289196,345.78630202289196 0 0,0 -284.5765476118713,-196.42900808173675Z" style="stroke: rgb(255, 255, 255); fill: rgb(85, 184, 255); fill-rule: evenodd;"></path><text transform="rotate(228.4615384615384)" x="345.78630202289196" dx="6" dy=".35em" style="font-size: 11px; font-family: Arial, Helvetica;">Pierre Mouriquand</text><title>Pierre Mouriquand: 1</title></g><g><path d="M-160.69490712536313,-306.1785647145103A345.78630202289196,345.78630202289196 0 0,1 -3.706398444788426e-13,-345.78630202289196L-2.6208194740891696e-13,-244.5078390018065A244.5078390018065,244.5078390018065 0 0,0 -113.62845853048672,-216.50093936359443Z" style="stroke: rgb(255, 255, 255); fill: rgb(184, 184, 184); fill-rule: evenodd;"></path><text transform="rotate(256.15384615384613)" x="244.5078390018065" dx="6" dy=".35em" style="font-size: 11px; font-family: Arial, Helvetica;">Autre</text><title>Autre: none</title></g><g><path d="M-196.81026336053623,-374.99062686413424A423.5,423.5 0 0,1 -4.539392486588386e-13,-423.5L-3.706398444788426e-13,-345.78630202289196A345.78630202289196,345.78630202289196 0 0,0 -160.69490712536313,-306.1785647145103Z" style="stroke: rgb(255, 255, 255); fill: rgb(184, 184, 184); fill-rule: evenodd;"></path><text transform="rotate(256.15384615384613)" x="345.78630202289196" dx="6" dy=".35em" style="font-size: 11px; font-family: Arial, Helvetica;">Tracie O’Keefe</text><title>Tracie O’Keefe: 1</title></g></g></svg>